<svg width="25" height="25" viewBox="0 0 25 25" fill="none" xmlns="http://www.w3.org/2000/svg">
<circle cx="12.5" cy="12.5" r="12.5" fill="white"/>
<path d="M10.0171 16.7762C10.0171 16.8367 9.94758 16.8851 9.85988 16.8851C9.76008 16.8942 9.69052 16.8458 9.69052 16.7762C9.69052 16.7157 9.76008 16.6673 9.84778 16.6673C9.93851 16.6583 10.0171 16.7067 10.0171 16.7762ZM9.07661 16.6401C9.05544 16.7006 9.11593 16.7702 9.20665 16.7883C9.28528 16.8185 9.37601 16.7883 9.39415 16.7278C9.4123 16.6673 9.35484 16.5978 9.26411 16.5706C9.18548 16.5494 9.09778 16.5796 9.07661 16.6401ZM10.4133 16.5887C10.3256 16.6099 10.2651 16.6673 10.2742 16.7369C10.2833 16.7974 10.3619 16.8367 10.4526 16.8155C10.5403 16.7944 10.6008 16.7369 10.5917 16.6764C10.5827 16.619 10.501 16.5796 10.4133 16.5887ZM12.4032 5C8.20867 5 5 8.18448 5 12.379C5 15.7329 7.11089 18.6028 10.126 19.6129C10.5131 19.6825 10.6492 19.4435 10.6492 19.247C10.6492 19.0595 10.6401 18.0252 10.6401 17.3901C10.6401 17.3901 8.52319 17.8437 8.07863 16.4889C8.07863 16.4889 7.73387 15.6089 7.2379 15.3821C7.2379 15.3821 6.54536 14.9073 7.28629 14.9163C7.28629 14.9163 8.03931 14.9768 8.45363 15.6966C9.11593 16.8639 10.2258 16.5282 10.6583 16.3286C10.7278 15.8448 10.9244 15.5091 11.1421 15.3095C9.45161 15.122 7.74597 14.877 7.74597 11.9677C7.74597 11.1361 7.97581 10.7187 8.45968 10.1865C8.38105 9.98992 8.12399 9.17943 8.53831 8.13306C9.17036 7.93649 10.625 8.9496 10.625 8.9496C11.2298 8.78024 11.88 8.69254 12.5242 8.69254C13.1683 8.69254 13.8185 8.78024 14.4234 8.9496C14.4234 8.9496 15.878 7.93347 16.5101 8.13306C16.9244 9.18246 16.6673 9.98992 16.5887 10.1865C17.0726 10.7218 17.369 11.1391 17.369 11.9677C17.369 14.8861 15.5877 15.1189 13.8972 15.3095C14.1754 15.5484 14.4113 16.002 14.4113 16.7127C14.4113 17.7319 14.4022 18.9929 14.4022 19.2409C14.4022 19.4375 14.5413 19.6764 14.9254 19.6069C17.9496 18.6028 20 15.7329 20 12.379C20 8.18448 16.5978 5 12.4032 5ZM7.93952 15.4304C7.9002 15.4607 7.90927 15.5302 7.96069 15.5877C8.00907 15.6361 8.07863 15.6573 8.11794 15.6179C8.15726 15.5877 8.14819 15.5181 8.09677 15.4607C8.04839 15.4123 7.97883 15.3911 7.93952 15.4304ZM7.6129 15.1855C7.59173 15.2248 7.62198 15.2732 7.68246 15.3034C7.73085 15.3337 7.79133 15.3246 7.8125 15.2823C7.83367 15.2429 7.80343 15.1946 7.74294 15.1643C7.68246 15.1462 7.63407 15.1552 7.6129 15.1855ZM8.59274 16.2621C8.54435 16.3014 8.5625 16.3921 8.63206 16.4496C8.70161 16.5192 8.78931 16.5282 8.82863 16.4798C8.86794 16.4405 8.8498 16.3498 8.78931 16.2923C8.72278 16.2228 8.63206 16.2137 8.59274 16.2621ZM8.24798 15.8175C8.1996 15.8478 8.1996 15.9264 8.24798 15.996C8.29637 16.0655 8.37802 16.0958 8.41734 16.0655C8.46573 16.0262 8.46573 15.9476 8.41734 15.878C8.375 15.8085 8.29637 15.7782 8.24798 15.8175Z" fill="black"/>
</svg>
