<svg width="25" height="25" viewBox="0 0 25 25" fill="none" xmlns="http://www.w3.org/2000/svg">
<circle cx="12.5" cy="12.5" r="12.5" fill="black"/>
<path d="M7.91669 8.20866C7.91669 7.66718 8.13179 7.14787 8.51468 6.76498C8.89756 6.3821 9.41687 6.16699 9.95835 6.16699H12V10.2503H9.95835C9.41687 10.2503 8.89756 10.0352 8.51468 9.65234C8.13179 9.26945 7.91669 8.75014 7.91669 8.20866Z" stroke="white" stroke-width="1.16667" stroke-linecap="round" stroke-linejoin="round"/>
<path d="M12 6.16699H14.0417C14.3098 6.16699 14.5753 6.2198 14.823 6.3224C15.0707 6.42501 15.2958 6.5754 15.4853 6.76498C15.6749 6.95457 15.8253 7.17964 15.9279 7.42735C16.0305 7.67505 16.0833 7.94054 16.0833 8.20866C16.0833 8.47677 16.0305 8.74226 15.9279 8.98997C15.8253 9.23768 15.6749 9.46275 15.4853 9.65234C15.2958 9.84192 15.0707 9.99231 14.823 10.0949C14.5753 10.1975 14.3098 10.2503 14.0417 10.2503H12V6.16699Z" stroke="white" stroke-width="1.16667" stroke-linecap="round" stroke-linejoin="round"/>
<path d="M12 12.2917C12 12.0236 12.0528 11.7581 12.1554 11.5104C12.258 11.2626 12.4084 11.0376 12.598 10.848C12.7876 10.6584 13.0126 10.508 13.2604 10.4054C13.5081 10.3028 13.7736 10.25 14.0417 10.25C14.3098 10.25 14.5753 10.3028 14.823 10.4054C15.0707 10.508 15.2958 10.6584 15.4853 10.848C15.6749 11.0376 15.8253 11.2626 15.9279 11.5104C16.0305 11.7581 16.0833 12.0236 16.0833 12.2917C16.0833 12.5598 16.0305 12.8253 15.9279 13.073C15.8253 13.3207 15.6749 13.5458 15.4853 13.7353C15.2958 13.9249 15.0707 14.0753 14.823 14.1779C14.5753 14.2805 14.3098 14.3333 14.0417 14.3333C13.7736 14.3333 13.5081 14.2805 13.2604 14.1779C13.0126 14.0753 12.7876 13.9249 12.598 13.7353C12.4084 13.5458 12.258 13.3207 12.1554 13.073C12.0528 12.8253 12 12.5598 12 12.2917Z" stroke="white" stroke-width="1.16667" stroke-linecap="round" stroke-linejoin="round"/>
<path d="M7.91669 16.3747C7.91669 15.8332 8.13179 15.3139 8.51468 14.931C8.89756 14.5481 9.41687 14.333 9.95835 14.333H12V16.3747C12 16.9162 11.7849 17.4355 11.402 17.8184C11.0191 18.2012 10.4998 18.4163 9.95835 18.4163C9.41687 18.4163 8.89756 18.2012 8.51468 17.8184C8.13179 17.4355 7.91669 16.9162 7.91669 16.3747Z" stroke="white" stroke-width="1.16667" stroke-linecap="round" stroke-linejoin="round"/>
<path d="M7.91669 12.2917C7.91669 11.7502 8.13179 11.2309 8.51468 10.848C8.89756 10.4651 9.41687 10.25 9.95835 10.25H12V14.3333H9.95835C9.41687 14.3333 8.89756 14.1182 8.51468 13.7353C8.13179 13.3525 7.91669 12.8332 7.91669 12.2917Z" stroke="white" stroke-width="1.16667" stroke-linecap="round" stroke-linejoin="round"/>
</svg>
