<svg width="25" height="25" viewBox="0 0 25 25" fill="none" xmlns="http://www.w3.org/2000/svg">
<circle cx="12.5" cy="12.5" r="12.5" fill="white"/>
<path d="M18.7284 9.4302C18.5788 8.86724 18.1383 8.42387 17.579 8.27341C16.5652 8 12.5 8 12.5 8C12.5 8 8.43481 8 7.42098 8.27341C6.86167 8.4239 6.42116 8.86724 6.27165 9.4302C6 10.4506 6 12.5795 6 12.5795C6 12.5795 6 14.7085 6.27165 15.7289C6.42116 16.2918 6.86167 16.7167 7.42098 16.8672C8.43481 17.1406 12.5 17.1406 12.5 17.1406C12.5 17.1406 16.5652 17.1406 17.579 16.8672C18.1383 16.7167 18.5788 16.2918 18.7284 15.7289C19 14.7085 19 12.5795 19 12.5795C19 12.5795 19 10.4506 18.7284 9.4302ZM11.1704 14.5125V10.6466L14.5682 12.5796L11.1704 14.5125Z" fill="black"/>
</svg>
