<svg width="25" height="25" viewBox="0 0 25 25" fill="none" xmlns="http://www.w3.org/2000/svg">
<circle cx="12.5" cy="12.5" r="12.5" fill="white"/>
<g clip-path="url(#clip0_490_193)">
<path d="M15.2084 7.08301H9.79171C8.29594 7.08301 7.08337 8.29557 7.08337 9.79134V15.208C7.08337 16.7038 8.29594 17.9163 9.79171 17.9163H15.2084C16.7041 17.9163 17.9167 16.7038 17.9167 15.208V9.79134C17.9167 8.29557 16.7041 7.08301 15.2084 7.08301Z" stroke="black" stroke-width="1.08333" stroke-linecap="round" stroke-linejoin="round"/>
<path d="M14.6666 12.1594C14.7334 12.6102 14.6564 13.0706 14.4465 13.4751C14.2366 13.8796 13.9045 14.2077 13.4975 14.4126C13.0904 14.6174 12.6291 14.6888 12.1791 14.6164C11.7292 14.544 11.3135 14.3315 10.9913 14.0093C10.669 13.687 10.4566 13.2714 10.3842 12.8214C10.3118 12.3715 10.3831 11.9102 10.588 11.5031C10.7929 11.096 11.1209 10.7639 11.5255 10.554C11.93 10.3441 12.3904 10.2671 12.8412 10.334C13.301 10.4022 13.7267 10.6164 14.0554 10.9452C14.3841 11.2739 14.5984 11.6996 14.6666 12.1594Z" stroke="black" stroke-width="1.08333" stroke-linecap="round" stroke-linejoin="round"/>
<path d="M15.4791 9.52051H15.4854" stroke="black" stroke-width="1.08333" stroke-linecap="round" stroke-linejoin="round"/>
</g>
<defs>
<clipPath id="clip0_490_193">
<rect width="13" height="13" fill="black" transform="translate(6 6)"/>
</clipPath>
</defs>
</svg>
